<svg xmlns="http://www.w3.org/2000/svg" xmlns:xlink="http://www.w3.org/1999/xlink" width="500" zoomAndPan="magnify" viewBox="0 0 375 374.999991" height="500" preserveAspectRatio="xMidYMid meet" version="1.2"><defs><clipPath id="9acf13b8f1"><rect x="0" width="139" y="0" height="261"/></clipPath></defs><g id="5f750d31dd"><rect x="0" width="375" y="0" height="374.999991" style="fill:#ffffff;fill-opacity:1;stroke:none;"/><rect x="0" width="375" y="0" height="374.999991" style="fill:#000000;fill-opacity:1;stroke:none;"/><g style="fill:#ffffff;fill-opacity:1;"><g transform="translate(32.790676, 264.372053)"><path style="stroke:none" d="M 126.734375 0 L 94.53125 -125.890625 L 102.546875 -156.203125 L 138.453125 -156.203125 L 178.0625 0 Z M -4.125 0 L 21.859375 -100.328125 L 47.625 0 Z M 61.046875 0 L 28.734375 -125.890625 L 36.75 -156.203125 L 72.65625 -156.203125 L 112.484375 0 Z M 61.046875 0 "/></g></g><g transform="matrix(1,0,0,1,207,56)"><g clip-path="url(#9acf13b8f1)"><g style="fill:#ffffff;fill-opacity:1;"><g transform="translate(0.16565, 203.178422)"><path style="stroke:none" d="M 75.625 -155.890625 C 76.539062 -156.035156 77.507812 -156.125 78.53125 -156.15625 C 79.550781 -156.1875 81.007812 -156.203125 82.90625 -156.203125 C 99.925781 -156.203125 112.457031 -152.492188 120.5 -145.078125 C 128.550781 -137.660156 132.578125 -126.253906 132.578125 -110.859375 C 132.578125 -95.316406 128.535156 -83.816406 120.453125 -76.359375 C 112.367188 -68.910156 99.851562 -65.1875 82.90625 -65.1875 C 81.007812 -65.1875 79.550781 -65.203125 78.53125 -65.234375 C 77.507812 -65.273438 76.539062 -65.363281 75.625 -65.5 Z M 6.96875 0 L 6.96875 -156 L 62.4375 -156 L 62.4375 0 Z M 6.96875 0 "/></g></g></g></g></g></svg>